<?xml version="1.0" encoding="utf-8"?>
<!-- Generator: Adobe Illustrator 16.0.0, SVG Export Plug-In . SVG Version: 6.00 Build 0)  -->
<!DOCTYPE svg PUBLIC "-//W3C//DTD SVG 1.1//EN" "http://www.w3.org/Graphics/SVG/1.1/DTD/svg11.dtd">
<svg version="1.1" id="Warstwa_1" xmlns="http://www.w3.org/2000/svg" xmlns:xlink="http://www.w3.org/1999/xlink" x="0px" y="0px"
	 width="185px" height="134.553px" viewBox="0 0 185 134.553" enable-background="new 0 0 185 134.553" xml:space="preserve">
<g>
	<path d="M35.445,120.859h2.614c4.245,0,6.72,2.365,6.72,6.147c0,3.776-2.453,6.139-6.72,6.139h-2.614V120.859z M37.971,132.48
		c4.066,0,6.032-2.26,6.032-5.474c0-3.222-1.966-5.478-6.032-5.478h-1.789v10.952H37.971z"/>
	<rect x="51.119" y="120.858" width="0.739" height="12.287"/>
	<path d="M62.634,120.715h0.218l4.991,12.431h-0.77l-0.934-2.386l-6.79-0.001l-0.941,2.387h-0.741L62.634,120.715z M65.864,130.109
		l-2.762-7.009c-0.181-0.433-0.364-1.122-0.364-1.122s-0.172,0.689-0.354,1.122l-2.788,7.009H65.864z"/>
	<path d="M73.64,120.714h0.181l5.55,7.306l5.533-7.306h0.185v12.432h-0.704v-9.757c0-0.434,0.041-1.063,0.041-1.063
		s-0.354,0.597-0.673,1.011l-4.316,5.674h-0.204l-4.257-5.674c-0.31-0.396-0.664-1.011-0.664-1.011s0.029,0.63,0.029,1.063v9.757
		h-0.7V120.714z"/>
	<path d="M91.372,127.007c0-3.745,2.821-6.292,6.291-6.292c3.46,0,6.278,2.547,6.278,6.292c0,3.738-2.818,6.283-6.278,6.283
		C94.193,133.29,91.372,130.745,91.372,127.007 M103.188,127.007c0-3.223-2.364-5.626-5.524-5.626c-3.161,0-5.535,2.403-5.535,5.626
		c0,3.213,2.374,5.612,5.535,5.612C100.823,132.619,103.188,130.22,103.188,127.007"/>
	<path d="M111.415,123.101c-0.232-0.303-0.562-0.813-0.562-0.813s0.059,0.561,0.059,0.926v9.933h-0.682v-12.431h0.214l7.851,10.191
		c0.239,0.307,0.562,0.813,0.562,0.813s-0.058-0.562-0.058-0.921v-9.941h0.688v12.431h-0.21L111.415,123.101z"/>
	<path d="M126.541,120.859h2.614c4.251,0,6.73,2.365,6.73,6.147c0,3.776-2.464,6.139-6.73,6.139h-2.614V120.859z M129.075,132.48
		c4.054,0,6.023-2.26,6.023-5.474c0-3.222-1.97-5.478-6.023-5.478h-1.793v10.952H129.075z"/>
	<path d="M140.808,130.832l0.624-0.302c0.596,1.082,1.507,2.115,3.47,2.115c1.609,0,2.924-0.943,2.924-2.494
		c0-1.433-0.784-2.204-2.5-3.004l-1.137-0.525c-1.719-0.793-2.572-1.605-2.572-3.161c0-1.698,1.358-2.746,3.023-2.746
		c1.636,0,2.557,0.848,3.146,1.769l-0.59,0.38c-0.501-0.809-1.199-1.498-2.557-1.498c-1.452,0-2.295,0.832-2.295,2.079
		c0,1.23,0.614,1.829,2.123,2.528l1.155,0.525c1.978,0.906,2.936,1.948,2.936,3.653c0,1.911-1.518,3.139-3.636,3.139
		C142.597,133.29,141.407,132.062,140.808,130.832"/>
	<path d="M131.493,106.721h4.608V73.679h-4.608V73h8.434c0.763,0,1.547-0.052,2.313-0.096c0.784,0,1.545-0.052,2.329-0.052
		c3.767,0,6.564,0.148,9.074,2.127c2.227,1.742,3.095,4.107,3.095,6.036c0,1.886-1.01,6.722-8.502,7.684v0.097
		c2.069,0.293,7.732,1.208,8.988,5.604c0.725,2.514,0.524,7.058,1.007,9.282c0.386,1.691,1.06,3.281,2.954,3.281
		c0.819,0,1.786-0.34,2.504-1.015l0.438,0.532c-0.678,0.536-1.546,1.254-4.243,1.254c-5.182,0-6.526-2.56-6.919-7.437l-0.329-4.393
		c-0.488-6.482-4.646-6.625-6.866-6.625h-4.835v17.442h5.373v0.674h-14.814V106.721z M140.935,88.603h4.449
		c3.572,0,6.032-1.549,6.032-7.485c0-6.769-3.806-7.588-7.195-7.588c-1.157,0-2.46,0.048-3.286,0.149V88.603z"/>
	<polygon points="166.438,106.721 171.804,106.721 171.804,73.68 166.438,73.68 166.438,73 182,73 182,73.68 176.638,73.68 
		176.638,106.721 182,106.721 182,107.396 166.438,107.396 	"/>
	<path d="M2,106.721h4.253l13.048-34.592h1.157l13.143,34.592h4.298v0.676H23.021v-0.676h5.359l-5.073-13.433H12.096l-5.07,13.433
		h5.366v0.676H2V106.721z M17.7,78.557l-5.309,14.062h10.629L17.7,78.557z"/>
	<path d="M68.154,107.396h-0.731c-0.434-0.483-0.916-1.01-2.122-1.01c-1.885,0-4.495,1.739-8.941,1.739
		c-4.055,0-7.97-1.404-11.357-4.734c-3.138-3.14-5.554-7.442-5.554-13.092c0-9.667,7.393-18.17,17.249-18.17
		c4.012,0,5.996,1.878,7.923,1.878c1.261,0,1.689-0.477,2.131-1.007h0.721v9.658h-0.528c-1.165-4.93-3.286-9.85-10.682-9.85
		c-10.293,0-11.26,10.239-11.26,17.491c0,13.574,4.59,17.15,11.26,17.15c8.606,0,10.048-5.414,11.356-10.343h0.536V107.396z"/>
	<polygon points="125.345,106.721 112.195,72.129 111.035,72.129 109.039,77.414 120.031,106.36 120.109,106.721 114.758,106.721 
		114.758,107.396 120.426,107.396 128.966,107.396 128.966,106.721 	"/>
	<path d="M100.287,100.625c-1.847,3.916-5.961,6.094-10.31,6.094h-4.454V73.679h5.361v-0.678H75.327v0.678h5.36v33.041h-5.36v0.677
		h15.097h8.467l2.562-6.771H100.287z"/>
	<path d="M94.637,1C79.407,1,67.06,13.349,67.06,28.579c0,15.235,12.348,27.586,27.577,27.586c15.233,0,27.584-12.351,27.584-27.586
		C122.221,13.349,109.87,1,94.637,1 M111.024,43.089L111.024,43.089l8.508-3.822c-1.286,3.008-3.134,5.829-5.556,8.291l-2.952-2.949
		l-0.356,0.354l2.949,2.954c-2.464,2.422-5.285,4.282-8.296,5.562l3.829-8.517h-0.552l-3.91,8.687l-10.052-4.266l-10.05,4.266
		l-3.908-8.687H80.13l3.835,8.517c-3.012-1.288-5.834-3.14-8.305-5.562l2.953-2.954l-0.354-0.354l-2.948,2.949
		c-2.433-2.462-4.278-5.283-5.571-8.292l8.52,3.824v-0.547l-8.681-3.912l4.256-10.054l-4.256-10.049l8.681-3.906v-0.55L69.744,17.9
		c1.291-3.011,3.141-5.833,5.567-8.301l2.948,2.956l0.354-0.357L75.66,9.25c2.477-2.427,5.295-4.276,8.307-5.565l-1.055,2.341
		l-2.782,6.172h0.001H80.13h0.549l3.909-8.677l10.054,4.256l10.047-4.256l3.91,8.677h0.552l-3.821-8.509
		c3.003,1.285,5.827,3.134,8.288,5.561l-2.949,2.948l0.356,0.36l2.952-2.958c2.422,2.468,4.27,5.291,5.56,8.306l-8.512-3.835v0.001
		V14.07v0.55l8.679,3.909l-4.259,10.055l4.259,10.057l-8.679,3.9V43.089z M104.134,53.956c-2.979,1.1-6.099,1.678-9.246,1.71v-5.63
		L104.134,53.956z M94.389,50.036v5.63c-3.136-0.032-6.27-0.61-9.244-1.71L94.389,50.036z M73.185,28.832l-3.912,9.245
		c-1.109-2.978-1.678-6.104-1.706-9.245H73.185z M67.566,28.33c0.028-2.807,0.484-5.609,1.371-8.294
		c0.105-0.321,0.216-0.635,0.335-0.951l3.912,9.245H67.566z M85.153,3.211c1.763-0.652,3.584-1.125,5.422-1.405h0.003
		C90.604,1.8,90.631,1.8,90.659,1.794c0.272-0.038,0.54-0.08,0.816-0.107c0.964-0.111,1.942-0.175,2.914-0.184l-0.001,5.625
		L85.153,3.211z M94.891,7.129V1.503c3.145,0.031,6.264,0.6,9.238,1.71L94.891,7.129z M116.093,28.832h5.621
		c-0.016,2.38-0.343,4.752-0.995,7.059c-0.2,0.739-0.44,1.463-0.705,2.188L116.093,28.832z M116.093,28.332l3.921-9.245
		c0.229,0.623,0.441,1.256,0.627,1.893c0.691,2.395,1.058,4.872,1.073,7.353H116.093z"/>
	<polygon points="114.52,29.425 101.802,42.138 102.517,42.138 114.729,29.925 	"/>
	<polygon points="114.721,27.24 110.911,23.421 110.911,24.13 114.52,27.739 	"/>
	<polygon points="108.192,20.702 95.988,8.493 95.492,8.705 108.192,21.415 	"/>
	<polygon points="93.801,8.705 93.3,8.498 89.481,12.313 90.192,12.313 	"/>
	<polygon points="86.763,15.025 74.551,27.239 74.763,27.735 87.472,15.025 	"/>
	<polygon points="74.764,29.42 74.559,29.926 78.369,33.744 78.369,33.036 	"/>
	<polygon points="109.293,43.235 90.137,43.235 90.635,43.738 109.795,43.738 109.795,36.426 109.293,36.934 	"/>
	<polygon points="109.293,13.926 109.293,33.101 109.795,32.597 109.795,13.429 102.48,13.429 102.978,13.926 	"/>
	<polygon points="79.989,43.235 79.989,24.085 79.482,24.582 79.494,43.738 86.795,43.738 86.299,43.235 	"/>
	<polygon points="79.989,13.932 99.151,13.932 98.643,13.429 79.482,13.429 79.482,20.752 79.989,20.255 	"/>
	<polygon points="81.087,36.454 93.3,48.672 93.798,48.454 81.087,35.751 	"/>
	<polygon points="95.48,48.454 95.988,48.667 99.805,44.85 99.096,44.85 	"/>
</g>
</svg>
