<svg xmlns="http://www.w3.org/2000/svg" width="46.997" height="47" viewBox="0 0 46.997 47"><path d="M90.555,1a23.5,23.5,0,1,0,23.5,23.5A23.5,23.5,0,0,0,90.555,1m13.962,35.859h0l7.249-3.256a22.869,22.869,0,0,1-4.734,7.064l-2.515-2.513-.3.3,2.513,2.517a22.8,22.8,0,0,1-7.068,4.739l3.262-7.256h-.47l-3.331,7.4-8.564-3.635-8.562,3.635-3.33-7.4H78.2l3.267,7.256a23.016,23.016,0,0,1-7.076-4.739L76.9,38.456l-.3-.3L74.09,40.667A22.845,22.845,0,0,1,69.343,33.6L76.6,36.86v-.466l-7.4-3.333L72.832,24.5l-3.626-8.562,7.4-3.328v-.469L69.347,15.4A22.98,22.98,0,0,1,74.09,8.326L76.6,10.845l.3-.3L74.387,8.029a23.032,23.032,0,0,1,7.077-4.741l-.9,1.995L78.2,10.541h.468l3.33-7.393L90.56,6.774l8.56-3.626,3.331,7.393h.47l-3.255-7.25a22.822,22.822,0,0,1,7.061,4.738l-2.512,2.512.3.307,2.515-2.52A22.985,22.985,0,0,1,111.77,15.4l-7.252-3.267h0V12.6l7.394,3.33L108.284,24.5l3.629,8.568-7.394,3.323v.467Zm-5.87,9.259a23.405,23.405,0,0,1-7.877,1.457v-4.8Zm-8.3-3.34v4.8a23.419,23.419,0,0,1-7.876-1.457ZM72.278,24.713l-3.333,7.877a23.145,23.145,0,0,1-1.454-7.877Zm-4.787-.428a23.276,23.276,0,0,1,1.168-7.066c.089-.273.184-.541.285-.81l3.333,7.877H67.491Zm14.984-21.4a23.573,23.573,0,0,1,4.619-1.2h0c.022-.005.045-.005.069-.01.232-.032.46-.068.7-.091a23.683,23.683,0,0,1,2.483-.157V6.221Zm8.3,3.338V1.429a23.127,23.127,0,0,1,7.871,1.457Zm18.064,18.491h4.789a22.654,22.654,0,0,1-.848,6.014c-.17.63-.375,1.246-.6,1.864Zm0-.426,3.341-7.877c.2.531.376,1.07.534,1.613a23.125,23.125,0,0,1,.914,6.265h-4.789Z" transform="translate(-67.06 -1)"/></svg>